<?xml version="1.0" standalone="no"?>
<!DOCTYPE svg PUBLIC "-//W3C//DTD SVG 20010904//EN"
 "http://www.w3.org/TR/2001/REC-SVG-20010904/DTD/svg10.dtd">
<svg version="1.0" xmlns="http://www.w3.org/2000/svg"
 width="256.000000pt" height="256.000000pt" viewBox="0 0 256.000000 256.000000"
 preserveAspectRatio="xMidYMid meet">

<g transform="translate(0.000000,256.000000) scale(0.100000,-0.100000)"
fill="#000000" stroke="none">
<path d="M0 1280 l0 -1280 525 0 c440 0 525 2 525 14 0 7 9 16 20 19 15 4 20
14 20 40 0 26 5 36 20 40 11 3 20 12 20 21 0 9 8 16 20 16 13 0 20 7 20 20 0
11 5 20 10 20 6 0 10 -9 10 -20 0 -19 7 -20 140 -20 133 0 140 -1 140 -20 0
-19 7 -20 90 -20 83 0 90 1 90 20 0 18 7 20 60 20 l60 0 0 40 c0 33 3 40 20
40 13 0 20 7 20 20 0 13 7 20 20 20 17 0 20 7 20 40 0 33 3 40 20 40 13 0 20
7 20 20 0 13 7 20 20 20 17 0 20 7 20 40 0 22 5 40 10 40 6 0 10 -9 10 -20 0
-13 7 -20 20 -20 11 0 20 -7 20 -15 0 -9 9 -15 25 -15 18 0 25 -5 25 -20 0
-13 7 -20 20 -20 15 0 20 -7 20 -25 0 -22 4 -25 35 -25 34 0 35 -2 35 -36 0
-27 5 -37 19 -41 11 -3 21 -13 24 -24 3 -10 12 -19 21 -19 12 0 16 -10 16 -36
0 -27 5 -37 19 -41 11 -3 21 -13 24 -24 3 -10 12 -19 20 -19 8 0 17 -9 20 -20
3 -11 12 -20 21 -20 9 0 16 -7 16 -15 0 -12 18 -15 105 -15 l105 0 0 1280 0
1280 -1280 0 -1280 0 0 -1280z m1560 940 c0 -17 -7 -20 -40 -20 -33 0 -40 3
-40 20 0 17 7 20 40 20 33 0 40 -3 40 -20z m-120 -40 c0 -13 7 -20 20 -20 13
0 20 -7 20 -20 0 -18 7 -20 60 -20 53 0 60 2 60 20 0 13 7 20 20 20 13 0 20
-7 20 -20 0 -13 7 -20 20 -20 13 0 20 -7 20 -20 0 -13 -7 -20 -20 -20 -13 0
-20 -7 -20 -20 0 -19 -7 -20 -120 -20 -113 0 -120 1 -120 20 0 13 -7 20 -20
20 -13 0 -20 7 -20 20 0 13 7 20 20 20 13 0 20 -7 20 -20 0 -17 7 -20 40 -20
33 0 40 3 40 20 0 13 -7 20 -20 20 -13 0 -20 7 -20 20 0 13 -7 20 -20 20 -13
0 -20 7 -20 20 0 13 7 20 20 20 13 0 20 -7 20 -20z m280 0 c0 -13 -7 -20 -20
-20 -13 0 -20 7 -20 20 0 13 7 20 20 20 13 0 20 -7 20 -20z m40 -80 c0 -13 7
-20 20 -20 13 0 20 -7 20 -20 0 -13 -7 -20 -20 -20 -13 0 -20 7 -20 20 0 13
-7 20 -20 20 -13 0 -20 7 -20 20 0 13 7 20 20 20 13 0 20 -7 20 -20z m40 -200
c0 -13 7 -20 20 -20 13 0 20 -7 20 -20 0 -13 7 -20 20 -20 20 0 20 -4 14 -105
-7 -103 -7 -105 15 -105 17 0 21 -6 21 -34 0 -18 3 -61 6 -95 6 -50 10 -61 25
-61 15 0 19 -8 19 -40 l0 -40 -60 0 c-53 0 -60 2 -60 20 0 13 -7 20 -20 20
-13 0 -20 7 -20 20 0 17 -7 20 -40 20 -33 0 -40 3 -40 20 0 19 -7 20 -107 22
-143 2 -166 -1 -179 -18 -6 -8 -26 -14 -44 -14 -23 0 -33 -5 -37 -20 -4 -16
-14 -20 -44 -20 -32 0 -39 -3 -39 -20 0 -11 -4 -20 -10 -20 -5 0 -10 9 -10 20
0 13 -7 20 -19 20 -10 0 -21 7 -25 15 -3 8 -15 15 -26 15 -13 0 -20 7 -20 20
0 17 -7 20 -40 20 -32 0 -40 4 -40 19 0 15 -11 19 -72 25 -67 6 -74 5 -91 -15
-30 -37 -32 -25 -29 144 2 90 4 97 22 97 17 0 20 7 20 40 l0 40 60 0 c53 0 60
2 60 20 0 17 7 20 50 20 43 0 50 -3 50 -20 0 -17 7 -20 45 -20 41 0 45 2 45
25 l0 25 100 0 c93 0 100 1 100 20 0 19 7 20 180 20 173 0 180 -1 180 -20z
m200 -200 c0 -13 -7 -20 -20 -20 -13 0 -20 7 -20 20 0 13 7 20 20 20 13 0 20
-7 20 -20z m80 -200 c0 -17 -7 -20 -40 -20 -33 0 -40 3 -40 20 0 17 7 20 40
20 33 0 40 -3 40 -20z m-1280 -80 c0 -18 -7 -20 -60 -20 -53 0 -60 2 -60 20 0
18 7 20 60 20 53 0 60 -2 60 -20z m30 -80 c0 -5 -13 -10 -30 -10 -16 0 -30 5
-30 10 0 6 14 10 30 10 17 0 30 -4 30 -10z m-150 -40 c0 -13 -7 -20 -20 -20
-13 0 -20 7 -20 20 0 13 7 20 20 20 13 0 20 -7 20 -20z m1270 -6 c0 -9 9 -18
20 -21 11 -3 20 -9 20 -13 0 -4 -9 -10 -20 -13 -31 -8 -27 -47 5 -47 18 0 25
-5 25 -20 0 -14 7 -20 22 -20 21 0 21 -2 15 -127 -4 -71 -7 -149 -7 -175 0
-41 -3 -48 -20 -48 -13 0 -20 -7 -20 -20 0 -11 -4 -20 -10 -20 -5 0 -10 9 -10
20 0 16 -7 20 -30 20 -29 0 -30 -1 -30 -50 0 -43 3 -50 20 -50 16 0 20 -7 20
-30 0 -23 -4 -30 -20 -30 -13 0 -20 -7 -20 -20 0 -13 -7 -20 -20 -20 -13 0
-20 -7 -20 -20 0 -13 -7 -20 -20 -20 -17 0 -20 -7 -20 -40 0 -33 -3 -40 -20
-40 -17 0 -20 -7 -20 -40 l0 -40 -40 0 c-33 0 -40 -3 -40 -20 0 -18 -7 -20
-62 -20 -85 0 -138 -10 -138 -25 0 -22 -46 -26 -236 -19 -150 6 -184 10 -184
21 0 8 -9 17 -20 20 -11 3 -20 12 -20 20 0 8 -9 17 -20 20 -11 3 -20 14 -20
24 0 12 -7 19 -20 19 -17 0 -20 7 -20 40 0 33 -3 40 -20 40 -18 0 -20 7 -20
60 0 53 -2 60 -20 60 -19 0 -20 7 -20 95 0 95 0 95 -25 95 -24 0 -25 3 -25 61
l0 62 31 -7 c17 -3 69 -6 115 -6 70 0 84 -3 84 -16 0 -9 9 -18 20 -21 26 -7
26 -23 0 -23 -13 0 -20 -7 -20 -20 0 -17 -7 -20 -40 -20 -33 0 -40 -3 -40 -20
0 -13 -7 -20 -20 -20 -18 0 -20 -7 -20 -70 0 -63 2 -70 20 -70 13 0 20 -7 20
-20 0 -17 7 -20 45 -20 l45 0 0 45 c0 38 3 45 20 45 15 0 20 7 20 25 0 22 -4
25 -35 25 -19 0 -35 5 -35 10 0 6 16 10 36 10 27 0 37 5 41 20 4 16 14 20 47
20 65 0 116 11 116 26 0 18 35 27 76 19 l34 -6 0 46 0 45 -60 0 c-53 0 -60 -2
-60 -20 0 -18 -7 -20 -60 -20 -53 0 -60 2 -60 20 0 17 -7 20 -40 20 -33 0 -40
3 -40 20 0 13 7 20 20 20 13 0 20 7 20 20 0 13 7 20 20 20 17 0 20 7 20 40 0
33 3 40 20 40 18 0 20 7 20 60 l0 60 40 0 c33 0 40 -3 40 -20 0 -13 7 -20 20
-20 18 0 20 -7 20 -60 0 -53 2 -60 20 -60 13 0 20 -7 20 -20 0 -13 7 -20 20
-20 13 0 20 -7 20 -20 0 -13 7 -20 20 -20 13 0 20 -7 20 -20 0 -13 7 -20 20
-20 15 0 20 -7 20 -25 0 -15 6 -25 15 -25 10 0 17 -14 21 -40 4 -24 12 -40 20
-40 9 0 14 -11 14 -30 0 -29 -2 -30 -44 -30 -72 0 -106 -10 -106 -31 0 -12 7
-19 20 -19 13 0 20 -7 20 -20 0 -13 7 -20 20 -20 13 0 20 -7 20 -19 0 -13 10
-21 34 -25 22 -4 36 -13 39 -26 3 -14 14 -20 31 -20 26 0 26 1 26 70 0 63 -2
70 -20 70 -11 0 -20 5 -20 10 0 6 9 10 20 10 13 0 20 7 20 20 0 13 7 20 20 20
16 0 20 7 20 30 0 23 -4 30 -20 30 -13 0 -20 7 -20 20 0 13 -7 20 -20 20 -11
0 -20 5 -20 10 0 6 9 10 20 10 13 0 20 7 20 19 0 20 26 31 78 31 27 0 32 3 32
25 0 22 -4 25 -35 25 -19 0 -35 5 -35 10 0 6 9 10 20 10 13 0 20 7 20 20 0 18
7 20 55 20 52 0 55 1 55 25 0 18 5 25 19 25 14 0 21 10 25 35 4 20 4 40 1 45
-12 19 6 68 26 73 10 3 19 12 19 21 0 11 9 16 30 16 21 0 30 -5 30 -16z
m-1157 -44 c3 -11 12 -20 21 -20 9 0 16 -4 16 -10 0 -5 -7 -10 -15 -10 -12 0
-15 -14 -15 -65 0 -58 -2 -65 -20 -65 -13 0 -20 -7 -20 -20 0 -13 -7 -20 -20
-20 -13 0 -20 7 -20 20 0 13 -7 20 -20 20 -13 0 -20 7 -20 20 0 13 7 20 20 20
13 0 20 -7 20 -20 0 -13 7 -20 20 -20 18 0 20 7 20 73 0 76 7 117 20 117 4 0
10 -9 13 -20z m157 -30 c0 -5 -4 -10 -10 -10 -5 0 -10 5 -10 10 0 6 5 10 10
10 6 0 10 -4 10 -10z m840 -20 c0 -28 -2 -30 -40 -30 -33 0 -40 -3 -40 -20 0
-13 -7 -20 -20 -20 -13 0 -20 -7 -20 -20 0 -17 -7 -20 -40 -20 -33 0 -40 -3
-40 -20 0 -17 -7 -20 -50 -20 -49 0 -50 1 -50 30 0 23 4 30 20 30 13 0 20 7
20 20 0 18 7 20 80 20 73 0 80 2 80 20 0 13 7 20 20 20 13 0 20 7 20 20 0 16
7 20 30 20 27 0 30 -3 30 -30z m-360 -120 c0 -16 -4 -30 -10 -30 -5 0 -10 14
-10 30 0 17 5 30 10 30 6 0 10 -13 10 -30z"/>
<path d="M1877 1203 c-4 -3 -7 -15 -7 -25 0 -13 7 -18 25 -18 20 0 25 5 25 25
0 18 -5 25 -18 25 -10 0 -22 -3 -25 -7z"/>
<path d="M1070 575 c0 -18 5 -25 20 -25 13 0 20 -7 20 -20 0 -13 7 -20 20 -20
16 0 20 -7 20 -34 0 -32 2 -34 45 -40 59 -9 135 2 135 20 0 8 16 16 40 20 39
6 40 8 40 45 l0 39 -125 0 c-118 0 -125 1 -125 20 0 17 -7 20 -45 20 -41 0
-45 -2 -45 -25z"/>
<path d="M1590 25 c0 -23 3 -25 50 -25 47 0 50 2 50 25 0 23 -3 25 -50 25 -47
0 -50 -2 -50 -25z"/>
</g>
</svg>
